<svg width="977" height="928" viewBox="0 0 977 928" fill="none" xmlns="http://www.w3.org/2000/svg">
<rect width="976" height="928" transform="translate(0.661133)" fill="white"/>
<path d="M49.1611 56C49.1611 51.8579 52.519 48.5 56.6611 48.5H920.661C924.803 48.5 928.161 51.8579 928.161 56V792C928.161 796.142 924.803 799.5 920.661 799.5H56.6611C52.519 799.5 49.1611 796.142 49.1611 792V56Z" stroke="#FA4D56"/>
<path d="M49.6611 56C49.6611 52.134 52.7951 49 56.6611 49H920.661C924.527 49 927.661 52.134 927.661 56V792C927.661 795.866 924.527 799 920.661 799H56.6611C52.7951 799 49.6611 795.866 49.6611 792V56Z" fill="white"/>
<path d="M49.6611 56C49.6611 52.134 52.7951 49 56.6611 49H920.661C924.527 49 927.661 52.134 927.661 56V792C927.661 795.866 924.527 799 920.661 799H56.6611C52.7951 799 49.6611 795.866 49.6611 792V56Z" fill="#FFF1F1"/>
<g clip-path="url(#clip0_253_5934)">
<text fill="black" xml:space="preserve" style="white-space: pre" font-family="IBM Plex Sans" font-size="14" font-weight="600" letter-spacing="0.16px"><tspan x="112.661" y="77.25">Red Hat OpenShift Cluster</tspan></text>
<path d="M48.6611 56C48.6611 51.5817 52.2429 48 56.6611 48H96.6611V96H48.6611V56Z" fill="#FA4D56"/>
<path d="M56.6611 48H96.6611V96H48.6611V56C48.6611 51.5817 52.2429 48 56.6611 48Z" fill="#FA4D56"/>
<rect width="24" height="24" transform="translate(60.6611 60)" fill="white" fill-opacity="0.01"/>
<path d="M80.5073 71.8476C80.4157 70.7229 80.1159 69.6251 79.6229 68.61L82.4114 67.5975C82.1915 67.142 81.9335 66.7059 81.6403 66.2939L80.333 66.7701C79.1909 65.1693 77.5556 63.9871 75.6774 63.4044C73.7993 62.8218 71.782 62.871 69.9345 63.5444C68.0869 64.2178 66.5111 65.4782 65.4484 67.1328C64.3856 68.7873 63.8946 70.7446 64.0505 72.7048L65.3612 72.2239C65.4028 72.726 65.4858 73.2239 65.6094 73.7123L62.8242 74.7288C63.0998 75.8224 63.576 76.8553 64.2287 77.775L65.7035 77.2378L65.7054 77.2407C66.6002 78.5006 67.8072 79.5062 69.2079 80.1589C71.3714 81.1644 73.8453 81.2708 76.0872 80.4547C78.329 79.6386 80.1556 77.9667 81.1664 75.8057C81.8224 74.4036 82.1016 72.8547 81.9764 71.3117L80.5073 71.8476ZM78.3173 74.4701C77.6618 75.8741 76.476 76.9607 75.0202 77.4914C73.5645 78.0222 71.9576 77.9536 70.5523 77.3009C69.9158 77.0044 69.3386 76.5945 68.8487 76.0913L67.3603 76.634C66.5607 75.8099 66.0199 74.7697 65.8046 73.6418L65.8053 73.6412L68.5985 72.6238C68.4992 72.1138 68.4681 71.5929 68.5061 71.0748L67.1923 71.552C67.2619 70.6093 67.5598 69.6977 68.0601 68.8957C68.5604 68.0938 69.2483 67.4255 70.0643 66.9485C70.8804 66.4715 71.8002 66.2001 72.7445 66.1577C73.6888 66.1153 74.6292 66.3031 75.4847 66.705H75.4898C76.1244 67.0029 76.6998 67.4133 77.1882 67.9163L78.4964 67.4408C78.8572 67.8121 79.1672 68.2297 79.4181 68.6826L76.6356 69.7022C77.1965 70.704 77.4511 71.8483 77.3681 72.9934L78.8444 72.4571C78.7925 73.1546 78.6138 73.8367 78.3172 74.4701H78.3173Z" fill="white"/>
</g>
<path d="M64.6611 120C64.6611 115.582 68.2429 112 72.6611 112H264.661C269.079 112 272.661 115.582 272.661 120V744C272.661 748.418 269.079 752 264.661 752H72.6611C68.2429 752 64.6611 748.418 64.6611 744V120Z" fill="white"/>
<path d="M64.6611 120C64.6611 115.582 68.2429 112 72.6611 112H264.661C269.079 112 272.661 115.582 272.661 120V744C272.661 748.418 269.079 752 264.661 752H72.6611C68.2429 752 64.6611 748.418 64.6611 744V120Z" fill="white"/>
<g clip-path="url(#clip1_253_5934)">
<text fill="black" xml:space="preserve" style="white-space: pre" font-family="IBM Plex Sans" font-size="14" font-weight="600" letter-spacing="0.16px"><tspan x="80.6611" y="132.25">MongoDB</tspan></text>
<text fill="black" xml:space="preserve" style="white-space: pre" font-family="IBM Plex Sans" font-size="14" letter-spacing="0.16px"><tspan x="80.6611" y="150.25">mas-mongo-ce</tspan></text>
</g>
<mask id="path-12-inside-1_253_5934" fill="white">
<path d="M264.661 112H72.6611C68.2429 112 64.6611 115.582 64.6611 120V744C64.6611 748.418 68.2429 752 72.6611 752H264.661C269.079 752 272.661 748.418 272.661 744V120C272.661 115.582 269.079 112 264.661 112Z"/>
</mask>
<path d="M264.661 112H72.6611C68.2429 112 64.6611 115.582 64.6611 120V744C64.6611 748.418 68.2429 752 72.6611 752H264.661C269.079 752 272.661 748.418 272.661 744V120C272.661 115.582 269.079 112 264.661 112Z" stroke="black" stroke-width="2" stroke-dasharray="4 4" mask="url(#path-12-inside-1_253_5934)"/>
<rect width="192" height="48" transform="translate(80.6611 168)" fill="white" fill-opacity="0.01" style="mix-blend-mode:multiply"/>
<rect width="56" height="56" transform="translate(80.6611 160)" fill="white" fill-opacity="0.01" style="mix-blend-mode:multiply"/>
<path d="M136.661 160H80.6611V216H136.661V160Z" fill="white" fill-opacity="0.01" style="mix-blend-mode:multiply"/>
<path d="M88.6611 164.5H124.161C128.579 164.5 132.161 168.082 132.161 172.5V208" stroke="#0F62FE"/>
<path d="M92.6611 160.5H128.161C132.579 160.5 136.161 164.082 136.161 168.5V204" stroke="#0F62FE"/>
<rect x="81.1611" y="168.5" width="47" height="47" rx="7.5" fill="#EDF5FF"/>
<rect x="81.1611" y="168.5" width="47" height="47" rx="7.5" stroke="#0F62FE"/>
<path d="M88.6611 168H120.661C125.079 168 128.661 171.582 128.661 176V208C128.661 212.418 125.079 216 120.661 216H88.6611C84.2429 216 80.6611 212.418 80.6611 208V176C80.6611 171.582 84.2429 168 88.6611 168Z" fill="white"/>
<path d="M88.6611 168H120.661C125.079 168 128.661 171.582 128.661 176V208C128.661 212.418 125.079 216 120.661 216H88.6611C84.2429 216 80.6611 212.418 80.6611 208V176C80.6611 171.582 84.2429 168 88.6611 168Z" fill="#EDF5FF"/>
<mask id="path-19-inside-2_253_5934" fill="white">
<path d="M88.6611 168H120.661C125.079 168 128.661 171.582 128.661 176V208C128.661 212.418 125.079 216 120.661 216H88.6611C84.2429 216 80.6611 212.418 80.6611 208V176C80.6611 171.582 84.2429 168 88.6611 168Z"/>
</mask>
<path d="M88.6611 168H120.661C125.079 168 128.661 171.582 128.661 176V208C128.661 212.418 125.079 216 120.661 216H88.6611C84.2429 216 80.6611 212.418 80.6611 208V176C80.6611 171.582 84.2429 168 88.6611 168Z" stroke="#0F62FE" stroke-width="2" mask="url(#path-19-inside-2_253_5934)"/>
<rect width="24" height="24" transform="translate(92.6611 180)" fill="white" fill-opacity="0.01"/>
<path d="M110.661 182.25H98.6611C98.2633 182.25 97.8818 182.408 97.6005 182.689C97.3192 182.971 97.1611 183.352 97.1611 183.75V200.25C97.1611 200.648 97.3192 201.029 97.6005 201.311C97.8818 201.592 98.2633 201.75 98.6611 201.75H110.661C111.059 201.75 111.44 201.592 111.722 201.311C112.003 201.029 112.161 200.648 112.161 200.25V183.75C112.161 183.352 112.003 182.971 111.722 182.689C111.44 182.408 111.059 182.25 110.661 182.25ZM110.661 183.75V188.25H98.6611V183.75H110.661ZM98.6611 194.25V189.75H110.661V194.25H98.6611ZM98.6611 200.25V195.75H110.661V200.25H98.6611Z" fill="black"/>
<path d="M100.911 186.75C101.325 186.75 101.661 186.414 101.661 186C101.661 185.586 101.325 185.25 100.911 185.25C100.497 185.25 100.161 185.586 100.161 186C100.161 186.414 100.497 186.75 100.911 186.75Z" fill="black"/>
<path d="M100.911 192.75C101.325 192.75 101.661 192.414 101.661 192C101.661 191.586 101.325 191.25 100.911 191.25C100.497 191.25 100.161 191.586 100.161 192C100.161 192.414 100.497 192.75 100.911 192.75Z" fill="black"/>
<path d="M100.911 198.75C101.325 198.75 101.661 198.414 101.661 198C101.661 197.586 101.325 197.25 100.911 197.25C100.497 197.25 100.161 197.586 100.161 198C100.161 198.414 100.497 198.75 100.911 198.75Z" fill="black"/>
<text fill="black" xml:space="preserve" style="white-space: pre" font-family="IBM Plex Sans" font-size="14" font-weight="600" letter-spacing="0.16px"><tspan x="144.661" y="191.25">Core Databases</tspan></text>
<text fill="black" xml:space="preserve" style="white-space: pre" font-family="IBM Plex Sans" font-size="14" letter-spacing="0.16px"><tspan x="144.661" y="209.25">dev1</tspan></text>
<rect width="192" height="48" transform="translate(80.6611 256)" fill="white" fill-opacity="0.01" style="mix-blend-mode:multiply"/>
<rect width="56" height="56" transform="translate(80.6611 248)" fill="white" fill-opacity="0.01" style="mix-blend-mode:multiply"/>
<path d="M136.661 248H80.6611V304H136.661V248Z" fill="white" fill-opacity="0.01" style="mix-blend-mode:multiply"/>
<path d="M88.6611 252.5H124.161C128.579 252.5 132.161 256.082 132.161 260.5V296" stroke="#0F62FE"/>
<path d="M92.6611 248.5H128.161C132.579 248.5 136.161 252.082 136.161 256.5V292" stroke="#0F62FE"/>
<rect x="81.1611" y="256.5" width="47" height="47" rx="7.5" fill="#EDF5FF"/>
<rect x="81.1611" y="256.5" width="47" height="47" rx="7.5" stroke="#0F62FE"/>
<path d="M88.6611 256H120.661C125.079 256 128.661 259.582 128.661 264V296C128.661 300.418 125.079 304 120.661 304H88.6611C84.2429 304 80.6611 300.418 80.6611 296V264C80.6611 259.582 84.2429 256 88.6611 256Z" fill="white"/>
<path d="M88.6611 256H120.661C125.079 256 128.661 259.582 128.661 264V296C128.661 300.418 125.079 304 120.661 304H88.6611C84.2429 304 80.6611 300.418 80.6611 296V264C80.6611 259.582 84.2429 256 88.6611 256Z" fill="#EDF5FF"/>
<mask id="path-29-inside-3_253_5934" fill="white">
<path d="M88.6611 256H120.661C125.079 256 128.661 259.582 128.661 264V296C128.661 300.418 125.079 304 120.661 304H88.6611C84.2429 304 80.6611 300.418 80.6611 296V264C80.6611 259.582 84.2429 256 88.6611 256Z"/>
</mask>
<path d="M88.6611 256H120.661C125.079 256 128.661 259.582 128.661 264V296C128.661 300.418 125.079 304 120.661 304H88.6611C84.2429 304 80.6611 300.418 80.6611 296V264C80.6611 259.582 84.2429 256 88.6611 256Z" stroke="#0F62FE" stroke-width="2" mask="url(#path-29-inside-3_253_5934)"/>
<rect width="24" height="24" transform="translate(92.6611 268)" fill="white" fill-opacity="0.01"/>
<path d="M110.661 270.25H98.6611C98.2633 270.25 97.8818 270.408 97.6005 270.689C97.3192 270.971 97.1611 271.352 97.1611 271.75V288.25C97.1611 288.648 97.3192 289.029 97.6005 289.311C97.8818 289.592 98.2633 289.75 98.6611 289.75H110.661C111.059 289.75 111.44 289.592 111.722 289.311C112.003 289.029 112.161 288.648 112.161 288.25V271.75C112.161 271.352 112.003 270.971 111.722 270.689C111.44 270.408 111.059 270.25 110.661 270.25ZM110.661 271.75V276.25H98.6611V271.75H110.661ZM98.6611 282.25V277.75H110.661V282.25H98.6611ZM98.6611 288.25V283.75H110.661V288.25H98.6611Z" fill="black"/>
<path d="M100.911 274.75C101.325 274.75 101.661 274.414 101.661 274C101.661 273.586 101.325 273.25 100.911 273.25C100.497 273.25 100.161 273.586 100.161 274C100.161 274.414 100.497 274.75 100.911 274.75Z" fill="black"/>
<path d="M100.911 280.75C101.325 280.75 101.661 280.414 101.661 280C101.661 279.586 101.325 279.25 100.911 279.25C100.497 279.25 100.161 279.586 100.161 280C100.161 280.414 100.497 280.75 100.911 280.75Z" fill="black"/>
<path d="M100.911 286.75C101.325 286.75 101.661 286.414 101.661 286C101.661 285.586 101.325 285.25 100.911 285.25C100.497 285.25 100.161 285.586 100.161 286C100.161 286.414 100.497 286.75 100.911 286.75Z" fill="black"/>
<text fill="black" xml:space="preserve" style="white-space: pre" font-family="IBM Plex Sans" font-size="14" font-weight="600" letter-spacing="0.16px"><tspan x="144.661" y="279.25">IoT Databases</tspan></text>
<text fill="black" xml:space="preserve" style="white-space: pre" font-family="IBM Plex Sans" font-size="14" letter-spacing="0.16px"><tspan x="144.661" y="297.25">dev1</tspan></text>
<rect width="192" height="48" transform="translate(80.6611 344)" fill="white" fill-opacity="0.01" style="mix-blend-mode:multiply"/>
<rect x="81.1611" y="344.5" width="47" height="47" rx="7.5" fill="#EDF5FF"/>
<rect x="81.1611" y="344.5" width="47" height="47" rx="7.5" stroke="#0F62FE"/>
<path d="M88.6611 344H120.661C125.079 344 128.661 347.582 128.661 352V384C128.661 388.418 125.079 392 120.661 392H88.6611C84.2429 392 80.6611 388.418 80.6611 384V352C80.6611 347.582 84.2429 344 88.6611 344Z" fill="white"/>
<path d="M88.6611 344H120.661C125.079 344 128.661 347.582 128.661 352V384C128.661 388.418 125.079 392 120.661 392H88.6611C84.2429 392 80.6611 388.418 80.6611 384V352C80.6611 347.582 84.2429 344 88.6611 344Z" fill="#EDF5FF"/>
<mask id="path-36-inside-4_253_5934" fill="white">
<path d="M88.6611 344H120.661C125.079 344 128.661 347.582 128.661 352V384C128.661 388.418 125.079 392 120.661 392H88.6611C84.2429 392 80.6611 388.418 80.6611 384V352C80.6611 347.582 84.2429 344 88.6611 344Z"/>
</mask>
<path d="M88.6611 344H120.661C125.079 344 128.661 347.582 128.661 352V384C128.661 388.418 125.079 392 120.661 392H88.6611C84.2429 392 80.6611 388.418 80.6611 384V352C80.6611 347.582 84.2429 344 88.6611 344Z" stroke="#0F62FE" stroke-width="2" mask="url(#path-36-inside-4_253_5934)"/>
<rect width="24" height="24" transform="translate(92.6611 356)" fill="white" fill-opacity="0.01"/>
<path d="M110.661 358.25H98.6611C98.2633 358.25 97.8818 358.408 97.6005 358.689C97.3192 358.971 97.1611 359.352 97.1611 359.75V376.25C97.1611 376.648 97.3192 377.029 97.6005 377.311C97.8818 377.592 98.2633 377.75 98.6611 377.75H110.661C111.059 377.75 111.44 377.592 111.722 377.311C112.003 377.029 112.161 376.648 112.161 376.25V359.75C112.161 359.352 112.003 358.971 111.722 358.689C111.44 358.408 111.059 358.25 110.661 358.25ZM110.661 359.75V364.25H98.6611V359.75H110.661ZM98.6611 370.25V365.75H110.661V370.25H98.6611ZM98.6611 376.25V371.75H110.661V376.25H98.6611Z" fill="black"/>
<path d="M100.911 362.75C101.325 362.75 101.661 362.414 101.661 362C101.661 361.586 101.325 361.25 100.911 361.25C100.497 361.25 100.161 361.586 100.161 362C100.161 362.414 100.497 362.75 100.911 362.75Z" fill="black"/>
<path d="M100.911 368.75C101.325 368.75 101.661 368.414 101.661 368C101.661 367.586 101.325 367.25 100.911 367.25C100.497 367.25 100.161 367.586 100.161 368C100.161 368.414 100.497 368.75 100.911 368.75Z" fill="black"/>
<path d="M100.911 374.75C101.325 374.75 101.661 374.414 101.661 374C101.661 373.586 101.325 373.25 100.911 373.25C100.497 373.25 100.161 373.586 100.161 374C100.161 374.414 100.497 374.75 100.911 374.75Z" fill="black"/>
<text fill="black" xml:space="preserve" style="white-space: pre" font-family="IBM Plex Sans" font-size="14" font-weight="600" letter-spacing="0.16px"><tspan x="136.661" y="367.25">Monitor Database</tspan></text>
<text fill="black" xml:space="preserve" style="white-space: pre" font-family="IBM Plex Sans" font-size="14" letter-spacing="0.16px"><tspan x="136.661" y="385.25">dev1</tspan></text>
<rect width="192" height="96" transform="translate(80.6611 472)" fill="white" fill-opacity="0.01" style="mix-blend-mode:multiply"/>
<rect x="153.161" y="472.5" width="47" height="47" rx="7.5" fill="#F4F4F4"/>
<rect x="153.161" y="472.5" width="47" height="47" rx="7.5" stroke="black"/>
<path d="M160.661 472H192.661C197.079 472 200.661 475.582 200.661 480V512C200.661 516.418 197.079 520 192.661 520H160.661C156.243 520 152.661 516.418 152.661 512V480C152.661 475.582 156.243 472 160.661 472Z" fill="white"/>
<path d="M160.661 472H192.661C197.079 472 200.661 475.582 200.661 480V512C200.661 516.418 197.079 520 192.661 520H160.661C156.243 520 152.661 516.418 152.661 512V480C152.661 475.582 156.243 472 160.661 472Z" fill="#F4F4F4"/>
<mask id="path-43-inside-5_253_5934" fill="white">
<path d="M160.661 472H192.661C197.079 472 200.661 475.582 200.661 480V512C200.661 516.418 197.079 520 192.661 520H160.661C156.243 520 152.661 516.418 152.661 512V480C152.661 475.582 156.243 472 160.661 472Z"/>
</mask>
<path d="M160.661 472H192.661C197.079 472 200.661 475.582 200.661 480V512C200.661 516.418 197.079 520 192.661 520H160.661C156.243 520 152.661 516.418 152.661 512V480C152.661 475.582 156.243 472 160.661 472Z" stroke="black" stroke-width="2" mask="url(#path-43-inside-5_253_5934)"/>
<rect width="24" height="24" transform="translate(164.661 484)" fill="white" fill-opacity="0.01"/>
<path d="M182.661 486.25H170.661C170.263 486.25 169.882 486.408 169.6 486.689C169.319 486.971 169.161 487.352 169.161 487.75V504.25C169.161 504.648 169.319 505.029 169.6 505.311C169.882 505.592 170.263 505.75 170.661 505.75H182.661C183.059 505.75 183.44 505.592 183.722 505.311C184.003 505.029 184.161 504.648 184.161 504.25V487.75C184.161 487.352 184.003 486.971 183.722 486.689C183.44 486.408 183.059 486.25 182.661 486.25ZM182.661 487.75V492.25H170.661V487.75H182.661ZM170.661 498.25V493.75H182.661V498.25H170.661ZM170.661 504.25V499.75H182.661V504.25H170.661Z" fill="black"/>
<path d="M172.911 490.75C173.325 490.75 173.661 490.414 173.661 490C173.661 489.586 173.325 489.25 172.911 489.25C172.497 489.25 172.161 489.586 172.161 490C172.161 490.414 172.497 490.75 172.911 490.75Z" fill="black"/>
<path d="M172.911 496.75C173.325 496.75 173.661 496.414 173.661 496C173.661 495.586 173.325 495.25 172.911 495.25C172.497 495.25 172.161 495.586 172.161 496C172.161 496.414 172.497 496.75 172.911 496.75Z" fill="black"/>
<path d="M172.911 502.75C173.325 502.75 173.661 502.414 173.661 502C173.661 501.586 173.325 501.25 172.911 501.25C172.497 501.25 172.161 501.586 172.161 502C172.161 502.414 172.497 502.75 172.911 502.75Z" fill="black"/>
<text fill="black" xml:space="preserve" style="white-space: pre" font-family="IBM Plex Sans" font-size="14" font-weight="600" letter-spacing="0.16px"><tspan x="145.36" y="542.25">Database</tspan></text>
<text fill="black" xml:space="preserve" style="white-space: pre" font-family="IBM Plex Sans" font-size="14" letter-spacing="0.16px"><tspan x="152.734" y="560.25">ibm-sls</tspan></text>
<rect width="128" height="8" transform="translate(200.661 492)" fill="white" fill-opacity="0.01" style="mix-blend-mode:multiply"/>
<g clip-path="url(#clip2_253_5934)">
<rect width="128" height="0" transform="translate(200.661 496)" fill="white" fill-opacity="0.01" style="mix-blend-mode:multiply"/>
<path d="M200.661 496H328.661" stroke="black"/>
</g>
<rect width="168" height="24" transform="translate(104.661 216)" fill="white" fill-opacity="0.01" style="mix-blend-mode:multiply"/>
<rect width="168" height="24" transform="matrix(1 0 0 -1 104.661 240)" fill="white" fill-opacity="0.01" style="mix-blend-mode:multiply"/>
<path d="M272.661 240H112.661C108.243 240 104.661 236.418 104.661 232V216" stroke="black"/>
<rect width="208" height="24" transform="translate(104.661 304)" fill="white" fill-opacity="0.01" style="mix-blend-mode:multiply"/>
<rect width="208" height="24" transform="matrix(1 0 0 -1 104.661 328)" fill="white" fill-opacity="0.01" style="mix-blend-mode:multiply"/>
<path d="M312.661 328H112.661C108.243 328 104.661 324.418 104.661 320V304" stroke="black"/>
<rect width="168" height="24" transform="translate(104.661 392)" fill="white" fill-opacity="0.01" style="mix-blend-mode:multiply"/>
<rect width="168" height="24" transform="matrix(1 0 0 -1 104.661 416)" fill="white" fill-opacity="0.01" style="mix-blend-mode:multiply"/>
<path d="M272.661 416H112.661C108.243 416 104.661 412.418 104.661 408V392" stroke="black"/>
<rect width="192" height="48" transform="translate(80.6611 600)" fill="white" fill-opacity="0.01" style="mix-blend-mode:multiply"/>
<rect width="56" height="56" transform="translate(80.6611 592)" fill="white" fill-opacity="0.01" style="mix-blend-mode:multiply"/>
<path d="M136.661 592H80.6611V648H136.661V592Z" fill="white" fill-opacity="0.01" style="mix-blend-mode:multiply"/>
<path d="M88.6611 596.5H124.161C128.579 596.5 132.161 600.082 132.161 604.5V640" stroke="#24A148"/>
<path d="M92.6611 592.5H128.161C132.579 592.5 136.161 596.082 136.161 600.5V636" stroke="#24A148"/>
<rect x="81.1611" y="600.5" width="47" height="47" rx="7.5" fill="#DEFBE6"/>
<rect x="81.1611" y="600.5" width="47" height="47" rx="7.5" stroke="#198038"/>
<path d="M88.6611 600H120.661C125.079 600 128.661 603.582 128.661 608V640C128.661 644.418 125.079 648 120.661 648H88.6611C84.2429 648 80.6611 644.418 80.6611 640V608C80.6611 603.582 84.2429 600 88.6611 600Z" fill="white"/>
<path d="M88.6611 600H120.661C125.079 600 128.661 603.582 128.661 608V640C128.661 644.418 125.079 648 120.661 648H88.6611C84.2429 648 80.6611 644.418 80.6611 640V608C80.6611 603.582 84.2429 600 88.6611 600Z" fill="#DEFBE6"/>
<mask id="path-57-inside-6_253_5934" fill="white">
<path d="M88.6611 600H120.661C125.079 600 128.661 603.582 128.661 608V640C128.661 644.418 125.079 648 120.661 648H88.6611C84.2429 648 80.6611 644.418 80.6611 640V608C80.6611 603.582 84.2429 600 88.6611 600Z"/>
</mask>
<path d="M88.6611 600H120.661C125.079 600 128.661 603.582 128.661 608V640C128.661 644.418 125.079 648 120.661 648H88.6611C84.2429 648 80.6611 644.418 80.6611 640V608C80.6611 603.582 84.2429 600 88.6611 600Z" stroke="#198038" stroke-width="2" mask="url(#path-57-inside-6_253_5934)"/>
<rect width="24" height="24" transform="translate(92.6611 612)" fill="white" fill-opacity="0.01"/>
<path d="M110.661 614.25H98.6611C98.2633 614.25 97.8818 614.408 97.6005 614.689C97.3192 614.971 97.1611 615.352 97.1611 615.75V632.25C97.1611 632.648 97.3192 633.029 97.6005 633.311C97.8818 633.592 98.2633 633.75 98.6611 633.75H110.661C111.059 633.75 111.44 633.592 111.722 633.311C112.003 633.029 112.161 632.648 112.161 632.25V615.75C112.161 615.352 112.003 614.971 111.722 614.689C111.44 614.408 111.059 614.25 110.661 614.25ZM110.661 615.75V620.25H98.6611V615.75H110.661ZM98.6611 626.25V621.75H110.661V626.25H98.6611ZM98.6611 632.25V627.75H110.661V632.25H98.6611Z" fill="black"/>
<path d="M100.911 618.75C101.325 618.75 101.661 618.414 101.661 618C101.661 617.586 101.325 617.25 100.911 617.25C100.497 617.25 100.161 617.586 100.161 618C100.161 618.414 100.497 618.75 100.911 618.75Z" fill="black"/>
<path d="M100.911 624.75C101.325 624.75 101.661 624.414 101.661 624C101.661 623.586 101.325 623.25 100.911 623.25C100.497 623.25 100.161 623.586 100.161 624C100.161 624.414 100.497 624.75 100.911 624.75Z" fill="black"/>
<path d="M100.911 630.75C101.325 630.75 101.661 630.414 101.661 630C101.661 629.586 101.325 629.25 100.911 629.25C100.497 629.25 100.161 629.586 100.161 630C100.161 630.414 100.497 630.75 100.911 630.75Z" fill="black"/>
<text fill="black" xml:space="preserve" style="white-space: pre" font-family="IBM Plex Sans" font-size="14" font-weight="600" letter-spacing="0.16px"><tspan x="144.661" y="620.25">Core Databases</tspan></text>
<text fill="black" xml:space="preserve" style="white-space: pre" font-family="IBM Plex Sans" font-size="14" letter-spacing="0.16px"><tspan x="144.661" y="638.25">dev2</tspan></text>
<path d="M313.159 120C313.159 115.858 316.517 112.5 320.659 112.5H608.659C612.801 112.5 616.159 115.858 616.159 120V416C616.159 420.142 612.801 423.5 608.659 423.5H320.659C316.517 423.5 313.159 420.142 313.159 416V120Z" fill="white"/>
<path d="M313.159 120C313.159 115.858 316.517 112.5 320.659 112.5H608.659C612.801 112.5 616.159 115.858 616.159 120V416C616.159 420.142 612.801 423.5 608.659 423.5H320.659C316.517 423.5 313.159 420.142 313.159 416V120Z" stroke="#0F62FE"/>
<path d="M313.659 120C313.659 116.134 316.793 113 320.659 113H608.659C612.525 113 615.659 116.134 615.659 120V416C615.659 419.866 612.525 423 608.659 423H320.659C316.793 423 313.659 419.866 313.659 416V120Z" fill="white"/>
<g clip-path="url(#clip3_253_5934)">
<text fill="black" xml:space="preserve" style="white-space: pre" font-family="IBM Plex Sans" font-size="14" font-weight="600" letter-spacing="0.16px"><tspan x="328.659" y="132.25">Maximo Application Suite Instance</tspan></text>
<text fill="black" xml:space="preserve" style="white-space: pre" font-family="IBM Plex Sans" font-size="14" letter-spacing="0.16px"><tspan x="328.659" y="150.25">dev1</tspan></text>
</g>
<rect width="264" height="48" transform="translate(328.659 296)" fill="white" fill-opacity="0.01" style="mix-blend-mode:multiply"/>
<rect x="329.159" y="296.5" width="47" height="47" rx="7.5" fill="#EDF5FF"/>
<rect x="329.159" y="296.5" width="47" height="47" rx="7.5" stroke="#0F62FE"/>
<path d="M336.659 296H368.659C373.077 296 376.659 299.582 376.659 304V336C376.659 340.418 373.077 344 368.659 344H336.659C332.241 344 328.659 340.418 328.659 336V304C328.659 299.582 332.241 296 336.659 296Z" fill="white"/>
<path d="M336.659 296H368.659C373.077 296 376.659 299.582 376.659 304V336C376.659 340.418 373.077 344 368.659 344H336.659C332.241 344 328.659 340.418 328.659 336V304C328.659 299.582 332.241 296 336.659 296Z" fill="#EDF5FF"/>
<mask id="path-68-inside-7_253_5934" fill="white">
<path d="M336.659 296H368.659C373.077 296 376.659 299.582 376.659 304V336C376.659 340.418 373.077 344 368.659 344H336.659C332.241 344 328.659 340.418 328.659 336V304C328.659 299.582 332.241 296 336.659 296Z"/>
</mask>
<path d="M336.659 296H368.659C373.077 296 376.659 299.582 376.659 304V336C376.659 340.418 373.077 344 368.659 344H336.659C332.241 344 328.659 340.418 328.659 336V304C328.659 299.582 332.241 296 336.659 296Z" stroke="#0F62FE" stroke-width="2" mask="url(#path-68-inside-7_253_5934)"/>
<rect width="24" height="24" transform="translate(340.659 308)" fill="white" fill-opacity="0.01"/>
<path d="M352.659 321.5H345.159C344.761 321.5 344.38 321.342 344.099 321.061C343.817 320.779 343.659 320.398 343.659 320V312.5C343.659 312.102 343.817 311.721 344.099 311.439C344.38 311.158 344.761 311 345.159 311H352.659C353.057 311 353.439 311.158 353.72 311.439C354.001 311.721 354.159 312.102 354.159 312.5V320C354.159 320.398 354.001 320.779 353.72 321.061C353.439 321.342 353.057 321.5 352.659 321.5ZM345.159 312.5V320H352.659V312.5H345.159Z" fill="black"/>
<path d="M360.159 317V320H357.159V317H360.159ZM360.159 315.5H357.159C356.761 315.5 356.38 315.658 356.099 315.939C355.817 316.221 355.659 316.602 355.659 317V320C355.659 320.398 355.817 320.779 356.099 321.061C356.38 321.342 356.761 321.5 357.159 321.5H360.159C360.557 321.5 360.939 321.342 361.22 321.061C361.501 320.779 361.659 320.398 361.659 320V317C361.659 316.602 361.501 316.221 361.22 315.939C360.939 315.658 360.557 315.5 360.159 315.5Z" fill="black"/>
<path d="M360.159 324.5V327.5H357.159V324.5H360.159ZM360.159 323H357.159C356.761 323 356.38 323.158 356.099 323.439C355.817 323.721 355.659 324.102 355.659 324.5V327.5C355.659 327.898 355.817 328.279 356.099 328.561C356.38 328.842 356.761 329 357.159 329H360.159C360.557 329 360.939 328.842 361.22 328.561C361.501 328.279 361.659 327.898 361.659 327.5V324.5C361.659 324.102 361.501 323.721 361.22 323.439C360.939 323.158 360.557 323 360.159 323Z" fill="black"/>
<path d="M352.659 324.5V327.5H349.659V324.5H352.659ZM352.659 323H349.659C349.261 323 348.88 323.158 348.599 323.439C348.317 323.721 348.159 324.102 348.159 324.5V327.5C348.159 327.898 348.317 328.279 348.599 328.561C348.88 328.842 349.261 329 349.659 329H352.659C353.057 329 353.439 328.842 353.72 328.561C354.001 328.279 354.159 327.898 354.159 327.5V324.5C354.159 324.102 354.001 323.721 353.72 323.439C353.439 323.158 353.057 323 352.659 323Z" fill="black"/>
<text fill="black" xml:space="preserve" style="white-space: pre" font-family="IBM Plex Sans" font-size="14" font-weight="600" letter-spacing="0.16px"><tspan x="384.659" y="324.25">Maximo Monitor</tspan></text>
<rect width="264" height="48" transform="translate(328.659 360)" fill="white" fill-opacity="0.01" style="mix-blend-mode:multiply"/>
<rect x="329.159" y="360.5" width="47" height="47" rx="7.5" fill="#EDF5FF"/>
<rect x="329.159" y="360.5" width="47" height="47" rx="7.5" stroke="#0F62FE"/>
<path d="M336.659 360H368.659C373.077 360 376.659 363.582 376.659 368V400C376.659 404.418 373.077 408 368.659 408H336.659C332.241 408 328.659 404.418 328.659 400V368C328.659 363.582 332.241 360 336.659 360Z" fill="white"/>
<path d="M336.659 360H368.659C373.077 360 376.659 363.582 376.659 368V400C376.659 404.418 373.077 408 368.659 408H336.659C332.241 408 328.659 404.418 328.659 400V368C328.659 363.582 332.241 360 336.659 360Z" fill="#EDF5FF"/>
<mask id="path-74-inside-8_253_5934" fill="white">
<path d="M336.659 360H368.659C373.077 360 376.659 363.582 376.659 368V400C376.659 404.418 373.077 408 368.659 408H336.659C332.241 408 328.659 404.418 328.659 400V368C328.659 363.582 332.241 360 336.659 360Z"/>
</mask>
<path d="M336.659 360H368.659C373.077 360 376.659 363.582 376.659 368V400C376.659 404.418 373.077 408 368.659 408H336.659C332.241 408 328.659 404.418 328.659 400V368C328.659 363.582 332.241 360 336.659 360Z" stroke="#0F62FE" stroke-width="2" mask="url(#path-74-inside-8_253_5934)"/>
<rect width="24" height="24" transform="translate(340.659 372)" fill="white" fill-opacity="0.01"/>
<path d="M352.659 385.5H345.159C344.761 385.5 344.38 385.342 344.099 385.061C343.817 384.779 343.659 384.398 343.659 384V376.5C343.659 376.102 343.817 375.721 344.099 375.439C344.38 375.158 344.761 375 345.159 375H352.659C353.057 375 353.439 375.158 353.72 375.439C354.001 375.721 354.159 376.102 354.159 376.5V384C354.159 384.398 354.001 384.779 353.72 385.061C353.439 385.342 353.057 385.5 352.659 385.5ZM345.159 376.5V384H352.659V376.5H345.159Z" fill="black"/>
<path d="M360.159 381V384H357.159V381H360.159ZM360.159 379.5H357.159C356.761 379.5 356.38 379.658 356.099 379.939C355.817 380.221 355.659 380.602 355.659 381V384C355.659 384.398 355.817 384.779 356.099 385.061C356.38 385.342 356.761 385.5 357.159 385.5H360.159C360.557 385.5 360.939 385.342 361.22 385.061C361.501 384.779 361.659 384.398 361.659 384V381C361.659 380.602 361.501 380.221 361.22 379.939C360.939 379.658 360.557 379.5 360.159 379.5Z" fill="black"/>
<path d="M360.159 388.5V391.5H357.159V388.5H360.159ZM360.159 387H357.159C356.761 387 356.38 387.158 356.099 387.439C355.817 387.721 355.659 388.102 355.659 388.5V391.5C355.659 391.898 355.817 392.279 356.099 392.561C356.38 392.842 356.761 393 357.159 393H360.159C360.557 393 360.939 392.842 361.22 392.561C361.501 392.279 361.659 391.898 361.659 391.5V388.5C361.659 388.102 361.501 387.721 361.22 387.439C360.939 387.158 360.557 387 360.159 387Z" fill="black"/>
<path d="M352.659 388.5V391.5H349.659V388.5H352.659ZM352.659 387H349.659C349.261 387 348.88 387.158 348.599 387.439C348.317 387.721 348.159 388.102 348.159 388.5V391.5C348.159 391.898 348.317 392.279 348.599 392.561C348.88 392.842 349.261 393 349.659 393H352.659C353.057 393 353.439 392.842 353.72 392.561C354.001 392.279 354.159 391.898 354.159 391.5V388.5C354.159 388.102 354.001 387.721 353.72 387.439C353.439 387.158 353.057 387 352.659 387Z" fill="black"/>
<text fill="black" xml:space="preserve" style="white-space: pre" font-family="IBM Plex Sans" font-size="14" font-weight="600" letter-spacing="0.16px"><tspan x="384.659" y="388.25">Maximo Manage</tspan></text>
<rect width="288" height="48" transform="translate(328.659 168)" fill="white" fill-opacity="0.01" style="mix-blend-mode:multiply"/>
<rect x="329.159" y="168.5" width="47" height="47" rx="7.5" fill="#EDF5FF"/>
<rect x="329.159" y="168.5" width="47" height="47" rx="7.5" stroke="#0F62FE"/>
<path d="M336.659 168H368.659C373.077 168 376.659 171.582 376.659 176V208C376.659 212.418 373.077 216 368.659 216H336.659C332.241 216 328.659 212.418 328.659 208V176C328.659 171.582 332.241 168 336.659 168Z" fill="white"/>
<path d="M336.659 168H368.659C373.077 168 376.659 171.582 376.659 176V208C376.659 212.418 373.077 216 368.659 216H336.659C332.241 216 328.659 212.418 328.659 208V176C328.659 171.582 332.241 168 336.659 168Z" fill="#EDF5FF"/>
<mask id="path-80-inside-9_253_5934" fill="white">
<path d="M336.659 168H368.659C373.077 168 376.659 171.582 376.659 176V208C376.659 212.418 373.077 216 368.659 216H336.659C332.241 216 328.659 212.418 328.659 208V176C328.659 171.582 332.241 168 336.659 168Z"/>
</mask>
<path d="M336.659 168H368.659C373.077 168 376.659 171.582 376.659 176V208C376.659 212.418 373.077 216 368.659 216H336.659C332.241 216 328.659 212.418 328.659 208V176C328.659 171.582 332.241 168 336.659 168Z" stroke="#0F62FE" stroke-width="2" mask="url(#path-80-inside-9_253_5934)"/>
<rect width="24" height="24" transform="translate(340.659 180)" fill="white" fill-opacity="0.01"/>
<path d="M352.659 193.5H345.159C344.761 193.5 344.38 193.342 344.099 193.061C343.817 192.779 343.659 192.398 343.659 192V184.5C343.659 184.102 343.817 183.721 344.099 183.439C344.38 183.158 344.761 183 345.159 183H352.659C353.057 183 353.439 183.158 353.72 183.439C354.001 183.721 354.159 184.102 354.159 184.5V192C354.159 192.398 354.001 192.779 353.72 193.061C353.439 193.342 353.057 193.5 352.659 193.5ZM345.159 184.5V192H352.659V184.5H345.159Z" fill="black"/>
<path d="M360.159 189V192H357.159V189H360.159ZM360.159 187.5H357.159C356.761 187.5 356.38 187.658 356.099 187.939C355.817 188.221 355.659 188.602 355.659 189V192C355.659 192.398 355.817 192.779 356.099 193.061C356.38 193.342 356.761 193.5 357.159 193.5H360.159C360.557 193.5 360.939 193.342 361.22 193.061C361.501 192.779 361.659 192.398 361.659 192V189C361.659 188.602 361.501 188.221 361.22 187.939C360.939 187.658 360.557 187.5 360.159 187.5Z" fill="black"/>
<path d="M360.159 196.5V199.5H357.159V196.5H360.159ZM360.159 195H357.159C356.761 195 356.38 195.158 356.099 195.439C355.817 195.721 355.659 196.102 355.659 196.5V199.5C355.659 199.898 355.817 200.279 356.099 200.561C356.38 200.842 356.761 201 357.159 201H360.159C360.557 201 360.939 200.842 361.22 200.561C361.501 200.279 361.659 199.898 361.659 199.5V196.5C361.659 196.102 361.501 195.721 361.22 195.439C360.939 195.158 360.557 195 360.159 195Z" fill="black"/>
<path d="M352.659 196.5V199.5H349.659V196.5H352.659ZM352.659 195H349.659C349.261 195 348.88 195.158 348.599 195.439C348.317 195.721 348.159 196.102 348.159 196.5V199.5C348.159 199.898 348.317 200.279 348.599 200.561C348.88 200.842 349.261 201 349.659 201H352.659C353.057 201 353.439 200.842 353.72 200.561C354.001 200.279 354.159 199.898 354.159 199.5V196.5C354.159 196.102 354.001 195.721 353.72 195.439C353.439 195.158 353.057 195 352.659 195Z" fill="black"/>
<text fill="black" xml:space="preserve" style="white-space: pre" font-family="IBM Plex Sans" font-size="14" font-weight="600" letter-spacing="0.16px"><tspan x="384.659" y="196.25">Maximo Application Suite Core</tspan></text>
<rect width="288" height="48" transform="translate(328.659 232)" fill="white" fill-opacity="0.01" style="mix-blend-mode:multiply"/>
<rect x="329.159" y="232.5" width="47" height="47" rx="7.5" fill="#EDF5FF"/>
<rect x="329.159" y="232.5" width="47" height="47" rx="7.5" stroke="#0F62FE"/>
<path d="M336.659 232H368.659C373.077 232 376.659 235.582 376.659 240V272C376.659 276.418 373.077 280 368.659 280H336.659C332.241 280 328.659 276.418 328.659 272V240C328.659 235.582 332.241 232 336.659 232Z" fill="white"/>
<path d="M336.659 232H368.659C373.077 232 376.659 235.582 376.659 240V272C376.659 276.418 373.077 280 368.659 280H336.659C332.241 280 328.659 276.418 328.659 272V240C328.659 235.582 332.241 232 336.659 232Z" fill="#EDF5FF"/>
<mask id="path-86-inside-10_253_5934" fill="white">
<path d="M336.659 232H368.659C373.077 232 376.659 235.582 376.659 240V272C376.659 276.418 373.077 280 368.659 280H336.659C332.241 280 328.659 276.418 328.659 272V240C328.659 235.582 332.241 232 336.659 232Z"/>
</mask>
<path d="M336.659 232H368.659C373.077 232 376.659 235.582 376.659 240V272C376.659 276.418 373.077 280 368.659 280H336.659C332.241 280 328.659 276.418 328.659 272V240C328.659 235.582 332.241 232 336.659 232Z" stroke="#0F62FE" stroke-width="2" mask="url(#path-86-inside-10_253_5934)"/>
<rect width="24" height="24" transform="translate(340.659 244)" fill="white" fill-opacity="0.01"/>
<path d="M352.659 257.5H345.159C344.761 257.5 344.38 257.342 344.099 257.061C343.817 256.779 343.659 256.398 343.659 256V248.5C343.659 248.102 343.817 247.721 344.099 247.439C344.38 247.158 344.761 247 345.159 247H352.659C353.057 247 353.439 247.158 353.72 247.439C354.001 247.721 354.159 248.102 354.159 248.5V256C354.159 256.398 354.001 256.779 353.72 257.061C353.439 257.342 353.057 257.5 352.659 257.5ZM345.159 248.5V256H352.659V248.5H345.159Z" fill="black"/>
<path d="M360.159 253V256H357.159V253H360.159ZM360.159 251.5H357.159C356.761 251.5 356.38 251.658 356.099 251.939C355.817 252.221 355.659 252.602 355.659 253V256C355.659 256.398 355.817 256.779 356.099 257.061C356.38 257.342 356.761 257.5 357.159 257.5H360.159C360.557 257.5 360.939 257.342 361.22 257.061C361.501 256.779 361.659 256.398 361.659 256V253C361.659 252.602 361.501 252.221 361.22 251.939C360.939 251.658 360.557 251.5 360.159 251.5Z" fill="black"/>
<path d="M360.159 260.5V263.5H357.159V260.5H360.159ZM360.159 259H357.159C356.761 259 356.38 259.158 356.099 259.439C355.817 259.721 355.659 260.102 355.659 260.5V263.5C355.659 263.898 355.817 264.279 356.099 264.561C356.38 264.842 356.761 265 357.159 265H360.159C360.557 265 360.939 264.842 361.22 264.561C361.501 264.279 361.659 263.898 361.659 263.5V260.5C361.659 260.102 361.501 259.721 361.22 259.439C360.939 259.158 360.557 259 360.159 259Z" fill="black"/>
<path d="M352.659 260.5V263.5H349.659V260.5H352.659ZM352.659 259H349.659C349.261 259 348.88 259.158 348.599 259.439C348.317 259.721 348.159 260.102 348.159 260.5V263.5C348.159 263.898 348.317 264.279 348.599 264.561C348.88 264.842 349.261 265 349.659 265H352.659C353.057 265 353.439 264.842 353.72 264.561C354.001 264.279 354.159 263.898 354.159 263.5V260.5C354.159 260.102 354.001 259.721 353.72 259.439C353.439 259.158 353.057 259 352.659 259Z" fill="black"/>
<text fill="black" xml:space="preserve" style="white-space: pre" font-family="IBM Plex Sans" font-size="14" font-weight="600" letter-spacing="0.16px"><tspan x="384.659" y="260.25">Maximo IoT</tspan></text>
<rect width="231" height="48" transform="translate(680.66 120)" fill="white" fill-opacity="0.01" style="mix-blend-mode:multiply"/>
<rect x="681.16" y="120.5" width="47" height="47" rx="7.5" fill="#EDF5FF"/>
<rect x="681.16" y="120.5" width="47" height="47" rx="7.5" stroke="#0F62FE"/>
<path d="M688.66 120H720.66C725.078 120 728.66 123.582 728.66 128V160C728.66 164.418 725.078 168 720.66 168H688.66C684.242 168 680.66 164.418 680.66 160V128C680.66 123.582 684.242 120 688.66 120Z" fill="white"/>
<mask id="path-91-inside-11_253_5934" fill="white">
<path d="M688.66 120H720.66C725.078 120 728.66 123.582 728.66 128V160C728.66 164.418 725.078 168 720.66 168H688.66C684.242 168 680.66 164.418 680.66 160V128C680.66 123.582 684.242 120 688.66 120Z"/>
</mask>
<path d="M688.66 120H720.66C725.078 120 728.66 123.582 728.66 128V160C728.66 164.418 725.078 168 720.66 168H688.66C684.242 168 680.66 164.418 680.66 160V128C680.66 123.582 684.242 120 688.66 120Z" stroke="#0F62FE" stroke-width="2" mask="url(#path-91-inside-11_253_5934)"/>
<rect width="24" height="24" transform="translate(692.66 132)" fill="white" fill-opacity="0.01"/>
<path d="M709.91 156L708.594 155.25L710.66 152.25H713.66V147H704.66V152.25H707.66V153.75H704.66C703.833 153.75 703.16 153.077 703.16 152.25V147C703.16 146.173 703.833 145.5 704.66 145.5H713.66C714.487 145.5 715.16 146.173 715.16 147V152.25C715.16 153.077 714.487 153.75 713.66 153.75H711.41L709.91 156Z" fill="black"/>
<path d="M702.41 133.5C698.437 133.5 694.16 134.439 694.16 136.5V150C694.16 151.802 697.432 152.747 700.91 152.955V151.454C697.51 151.244 695.76 150.356 695.66 150V147.321C696.94 147.963 698.89 148.329 700.91 148.45V146.954C697.51 146.744 695.76 145.856 695.66 145.5V142.821C697.256 143.621 699.892 144 702.41 144C706.384 144 710.66 143.061 710.66 141V136.499C710.66 134.438 706.383 133.5 702.41 133.5ZM695.659 136.511C695.773 136.095 698.023 135 702.41 135C706.758 135 709.006 136.076 709.158 136.5C709.006 136.924 706.758 138 702.41 138C698.023 138 695.773 136.905 695.659 136.511ZM709.16 140.99C709.04 141.408 706.791 142.5 702.41 142.5C698.023 142.5 695.773 141.405 695.66 141V138.321C697.256 139.121 699.892 139.5 702.41 139.5C704.928 139.5 707.564 139.121 709.16 138.321V140.99Z" fill="black"/>
<text fill="black" xml:space="preserve" style="white-space: pre" font-family="IBM Plex Sans" font-size="14" font-weight="600" letter-spacing="0.16px"><tspan x="736.66" y="140.25">Kafka</tspan></text>
<text fill="black" xml:space="preserve" style="white-space: pre" font-family="IBM Plex Sans" font-size="14" letter-spacing="0.16px"><tspan x="736.66" y="158.25">mas-dev1-system</tspan></text>
<path d="M664.66 192C664.66 187.582 668.242 184 672.66 184H904.66C909.078 184 912.66 187.582 912.66 192V288C912.66 292.418 909.078 296 904.66 296H672.66C668.242 296 664.66 292.418 664.66 288V192Z" fill="white"/>
<path d="M664.66 192C664.66 187.582 668.242 184 672.66 184H904.66C909.078 184 912.66 187.582 912.66 192V288C912.66 292.418 909.078 296 904.66 296H672.66C668.242 296 664.66 292.418 664.66 288V192Z" fill="white"/>
<g clip-path="url(#clip4_253_5934)">
<text fill="black" xml:space="preserve" style="white-space: pre" font-family="IBM Plex Sans" font-size="14" font-weight="600" letter-spacing="0.16px"><tspan x="680.66" y="213.25">Db2U Cluster</tspan></text>
</g>
<mask id="path-98-inside-12_253_5934" fill="white">
<path d="M904.66 184H672.66C668.242 184 664.66 187.582 664.66 192V288C664.66 292.418 668.242 296 672.66 296H904.66C909.078 296 912.66 292.418 912.66 288V192C912.66 187.582 909.078 184 904.66 184Z"/>
</mask>
<path d="M904.66 184H672.66C668.242 184 664.66 187.582 664.66 192V288C664.66 292.418 668.242 296 672.66 296H904.66C909.078 296 912.66 292.418 912.66 288V192C912.66 187.582 909.078 184 904.66 184Z" stroke="black" stroke-width="2" stroke-dasharray="4 4" mask="url(#path-98-inside-12_253_5934)"/>
<rect width="192" height="48" transform="translate(680.66 232)" fill="white" fill-opacity="0.01" style="mix-blend-mode:multiply"/>
<rect x="681.16" y="232.5" width="47" height="47" rx="7.5" fill="#EDF5FF"/>
<rect x="681.16" y="232.5" width="47" height="47" rx="7.5" stroke="#0F62FE"/>
<path d="M688.66 232H720.66C725.078 232 728.66 235.582 728.66 240V272C728.66 276.418 725.078 280 720.66 280H688.66C684.242 280 680.66 276.418 680.66 272V240C680.66 235.582 684.242 232 688.66 232Z" fill="white"/>
<path d="M688.66 232H720.66C725.078 232 728.66 235.582 728.66 240V272C728.66 276.418 725.078 280 720.66 280H688.66C684.242 280 680.66 276.418 680.66 272V240C680.66 235.582 684.242 232 688.66 232Z" fill="#EDF5FF"/>
<mask id="path-102-inside-13_253_5934" fill="white">
<path d="M688.66 232H720.66C725.078 232 728.66 235.582 728.66 240V272C728.66 276.418 725.078 280 720.66 280H688.66C684.242 280 680.66 276.418 680.66 272V240C680.66 235.582 684.242 232 688.66 232Z"/>
</mask>
<path d="M688.66 232H720.66C725.078 232 728.66 235.582 728.66 240V272C728.66 276.418 725.078 280 720.66 280H688.66C684.242 280 680.66 276.418 680.66 272V240C680.66 235.582 684.242 232 688.66 232Z" stroke="#0F62FE" stroke-width="2" mask="url(#path-102-inside-13_253_5934)"/>
<rect width="24" height="24" transform="translate(692.66 244)" fill="white" fill-opacity="0.01"/>
<path d="M704.66 246.25C700.687 246.25 696.41 247.189 696.41 249.25V262.75C696.41 264.811 700.687 265.75 704.66 265.75C708.634 265.75 712.91 264.811 712.91 262.75V249.25C712.91 247.189 708.634 246.25 704.66 246.25ZM704.66 247.75C709.008 247.75 711.256 248.826 711.408 249.25C711.256 249.674 709.008 250.75 704.66 250.75C700.279 250.75 698.031 249.658 697.91 249.263V249.26C698.031 248.842 700.279 247.75 704.66 247.75ZM697.91 251.071C699.506 251.871 702.142 252.25 704.66 252.25C707.178 252.25 709.814 251.871 711.41 251.071V253.74C711.29 254.158 709.041 255.25 704.66 255.25C700.273 255.25 698.023 254.155 697.91 253.75V251.071ZM697.91 255.571C699.506 256.371 702.142 256.75 704.66 256.75C707.178 256.75 709.814 256.371 711.41 255.571V258.24C711.29 258.658 709.041 259.75 704.66 259.75C700.273 259.75 698.023 258.655 697.91 258.25V255.571ZM704.66 264.25C700.273 264.25 698.023 263.155 697.91 262.75V260.071C699.506 260.871 702.142 261.25 704.66 261.25C707.178 261.25 709.814 260.871 711.41 260.071V262.74C711.29 263.158 709.041 264.25 704.66 264.25Z" fill="black"/>
<text fill="black" xml:space="preserve" style="white-space: pre" font-family="IBM Plex Sans" font-size="14" font-weight="600" letter-spacing="0.16px"><tspan x="736.66" y="252.25">Database</tspan></text>
<text fill="black" xml:space="preserve" style="white-space: pre" font-family="IBM Plex Sans" font-size="14" letter-spacing="0.16px"><tspan x="736.66" y="270.25">mas-dev1-system</tspan></text>
<path d="M664.66 320C664.66 315.582 668.242 312 672.66 312H904.66C909.078 312 912.66 315.582 912.66 320V416C912.66 420.418 909.078 424 904.66 424H672.66C668.242 424 664.66 420.418 664.66 416V320Z" fill="white"/>
<path d="M664.66 320C664.66 315.582 668.242 312 672.66 312H904.66C909.078 312 912.66 315.582 912.66 320V416C912.66 420.418 909.078 424 904.66 424H672.66C668.242 424 664.66 420.418 664.66 416V320Z" fill="white"/>
<g clip-path="url(#clip5_253_5934)">
<text fill="black" xml:space="preserve" style="white-space: pre" font-family="IBM Plex Sans" font-size="14" font-weight="600" letter-spacing="0.16px"><tspan x="680.66" y="341.25">Db2U Cluster</tspan></text>
</g>
<mask id="path-109-inside-14_253_5934" fill="white">
<path d="M904.66 312H672.66C668.242 312 664.66 315.582 664.66 320V416C664.66 420.418 668.242 424 672.66 424H904.66C909.078 424 912.66 420.418 912.66 416V320C912.66 315.582 909.078 312 904.66 312Z"/>
</mask>
<path d="M904.66 312H672.66C668.242 312 664.66 315.582 664.66 320V416C664.66 420.418 668.242 424 672.66 424H904.66C909.078 424 912.66 420.418 912.66 416V320C912.66 315.582 909.078 312 904.66 312Z" stroke="black" stroke-width="2" stroke-dasharray="4 4" mask="url(#path-109-inside-14_253_5934)"/>
<rect width="192" height="48" transform="translate(680.66 360)" fill="white" fill-opacity="0.01" style="mix-blend-mode:multiply"/>
<rect x="681.16" y="360.5" width="47" height="47" rx="7.5" fill="#EDF5FF"/>
<rect x="681.16" y="360.5" width="47" height="47" rx="7.5" stroke="#0F62FE"/>
<path d="M688.66 360H720.66C725.078 360 728.66 363.582 728.66 368V400C728.66 404.418 725.078 408 720.66 408H688.66C684.242 408 680.66 404.418 680.66 400V368C680.66 363.582 684.242 360 688.66 360Z" fill="white"/>
<path d="M688.66 360H720.66C725.078 360 728.66 363.582 728.66 368V400C728.66 404.418 725.078 408 720.66 408H688.66C684.242 408 680.66 404.418 680.66 400V368C680.66 363.582 684.242 360 688.66 360Z" fill="#EDF5FF"/>
<mask id="path-113-inside-15_253_5934" fill="white">
<path d="M688.66 360H720.66C725.078 360 728.66 363.582 728.66 368V400C728.66 404.418 725.078 408 720.66 408H688.66C684.242 408 680.66 404.418 680.66 400V368C680.66 363.582 684.242 360 688.66 360Z"/>
</mask>
<path d="M688.66 360H720.66C725.078 360 728.66 363.582 728.66 368V400C728.66 404.418 725.078 408 720.66 408H688.66C684.242 408 680.66 404.418 680.66 400V368C680.66 363.582 684.242 360 688.66 360Z" stroke="#0F62FE" stroke-width="2" mask="url(#path-113-inside-15_253_5934)"/>
<rect width="24" height="24" transform="translate(692.66 372)" fill="white" fill-opacity="0.01"/>
<path d="M704.66 374.25C700.687 374.25 696.41 375.189 696.41 377.25V390.75C696.41 392.811 700.687 393.75 704.66 393.75C708.634 393.75 712.91 392.811 712.91 390.75V377.25C712.91 375.189 708.634 374.25 704.66 374.25ZM704.66 375.75C709.008 375.75 711.256 376.826 711.408 377.25C711.256 377.674 709.008 378.75 704.66 378.75C700.279 378.75 698.031 377.658 697.91 377.263V377.26C698.031 376.842 700.279 375.75 704.66 375.75ZM697.91 379.071C699.506 379.871 702.142 380.25 704.66 380.25C707.178 380.25 709.814 379.871 711.41 379.071V381.74C711.29 382.158 709.041 383.25 704.66 383.25C700.273 383.25 698.023 382.155 697.91 381.75V379.071ZM697.91 383.571C699.506 384.371 702.142 384.75 704.66 384.75C707.178 384.75 709.814 384.371 711.41 383.571V386.24C711.29 386.658 709.041 387.75 704.66 387.75C700.273 387.75 698.023 386.655 697.91 386.25V383.571ZM704.66 392.25C700.273 392.25 698.023 391.155 697.91 390.75V388.071C699.506 388.871 702.142 389.25 704.66 389.25C707.178 389.25 709.814 388.871 711.41 388.071V390.74C711.29 391.158 709.041 392.25 704.66 392.25Z" fill="black"/>
<text fill="black" xml:space="preserve" style="white-space: pre" font-family="IBM Plex Sans" font-size="14" font-weight="600" letter-spacing="0.16px"><tspan x="736.66" y="380.25">Database</tspan></text>
<text fill="black" xml:space="preserve" style="white-space: pre" font-family="IBM Plex Sans" font-size="14" letter-spacing="0.16px"><tspan x="736.66" y="398.25">mas-dev1-manage</tspan></text>
<rect width="64" height="8" transform="translate(616.66 252)" fill="white" fill-opacity="0.01" style="mix-blend-mode:multiply"/>
<g clip-path="url(#clip6_253_5934)">
<rect width="64" height="0" transform="translate(616.66 256)" fill="white" fill-opacity="0.01" style="mix-blend-mode:multiply"/>
<path d="M616.66 256H680.66" stroke="black"/>
</g>
<rect width="40" height="64" transform="translate(640.66 144)" fill="white" fill-opacity="0.01" style="mix-blend-mode:multiply"/>
<rect width="40" height="64" transform="translate(640.66 144)" fill="white" fill-opacity="0.01" style="mix-blend-mode:multiply"/>
<path d="M680.66 144H648.66C644.242 144 640.66 147.582 640.66 152V208" stroke="black"/>
<rect width="40" height="80" transform="translate(641 304)" fill="white" fill-opacity="0.01" style="mix-blend-mode:multiply"/>
<rect width="40" height="80" transform="matrix(1 0 0 -1 641 384)" fill="white" fill-opacity="0.01" style="mix-blend-mode:multiply"/>
<path d="M681 384H649C644.582 384 641 380.418 641 376V304" stroke="black"/>
<rect width="16" height="48" transform="translate(624.66 208)" fill="white" fill-opacity="0.01" style="mix-blend-mode:multiply"/>
<rect width="16" height="48" transform="matrix(-1 0 0 -1 640.66 256)" fill="white" fill-opacity="0.01" style="mix-blend-mode:multiply"/>
<path d="M624.66 256H632.66C637.078 256 640.66 252.418 640.66 248V208" stroke="black"/>
<rect width="24" height="48" transform="translate(616.66 256)" fill="white" fill-opacity="0.01" style="mix-blend-mode:multiply"/>
<rect width="24" height="48" transform="matrix(-1 0 0 1 640.66 256)" fill="white" fill-opacity="0.01" style="mix-blend-mode:multiply"/>
<path d="M616.66 256H632.66C637.078 256 640.66 259.582 640.66 264V304" stroke="black"/>
<rect width="16" height="72" transform="translate(592.659 496)" fill="white" fill-opacity="0.01" style="mix-blend-mode:multiply"/>
<rect width="16" height="72" transform="translate(592.659 496)" fill="white" fill-opacity="0.01" style="mix-blend-mode:multiply"/>
<path d="M608.659 496H600.659C596.241 496 592.659 499.582 592.659 504V568" stroke="black"/>
<path d="M313.159 576C313.159 571.858 316.517 568.5 320.659 568.5H608.659C612.801 568.5 616.159 571.858 616.159 576V744C616.159 748.142 612.801 751.5 608.659 751.5H320.659C316.517 751.5 313.159 748.142 313.159 744V576Z" fill="white"/>
<path d="M313.159 576C313.159 571.858 316.517 568.5 320.659 568.5H608.659C612.801 568.5 616.159 571.858 616.159 576V744C616.159 748.142 612.801 751.5 608.659 751.5H320.659C316.517 751.5 313.159 748.142 313.159 744V576Z" stroke="#198038"/>
<path d="M313.659 576C313.659 572.134 316.793 569 320.659 569H608.659C612.525 569 615.659 572.134 615.659 576V744C615.659 747.866 612.525 751 608.659 751H320.659C316.793 751 313.659 747.866 313.659 744V576Z" fill="white"/>
<g clip-path="url(#clip7_253_5934)">
<text fill="black" xml:space="preserve" style="white-space: pre" font-family="IBM Plex Sans" font-size="14" font-weight="600" letter-spacing="0.16px"><tspan x="328.659" y="588.25">Maximo Application Suite Instance</tspan></text>
<text fill="black" xml:space="preserve" style="white-space: pre" font-family="IBM Plex Sans" font-size="14" letter-spacing="0.16px"><tspan x="328.659" y="606.25">dev2</tspan></text>
</g>
<rect width="256" height="48" transform="translate(328.659 688)" fill="white" fill-opacity="0.01" style="mix-blend-mode:multiply"/>
<rect x="329.159" y="688.5" width="47" height="47" rx="7.5" fill="#DEFBE6"/>
<rect x="329.159" y="688.5" width="47" height="47" rx="7.5" stroke="#198038"/>
<path d="M336.659 688H368.659C373.077 688 376.659 691.582 376.659 696V728C376.659 732.418 373.077 736 368.659 736H336.659C332.241 736 328.659 732.418 328.659 728V696C328.659 691.582 332.241 688 336.659 688Z" fill="white"/>
<path d="M336.659 688H368.659C373.077 688 376.659 691.582 376.659 696V728C376.659 732.418 373.077 736 368.659 736H336.659C332.241 736 328.659 732.418 328.659 728V696C328.659 691.582 332.241 688 336.659 688Z" fill="#DEFBE6"/>
<mask id="path-130-inside-16_253_5934" fill="white">
<path d="M336.659 688H368.659C373.077 688 376.659 691.582 376.659 696V728C376.659 732.418 373.077 736 368.659 736H336.659C332.241 736 328.659 732.418 328.659 728V696C328.659 691.582 332.241 688 336.659 688Z"/>
</mask>
<path d="M336.659 688H368.659C373.077 688 376.659 691.582 376.659 696V728C376.659 732.418 373.077 736 368.659 736H336.659C332.241 736 328.659 732.418 328.659 728V696C328.659 691.582 332.241 688 336.659 688Z" stroke="#198038" stroke-width="2" mask="url(#path-130-inside-16_253_5934)"/>
<rect width="24" height="24" transform="translate(340.659 700)" fill="white" fill-opacity="0.01"/>
<path d="M352.659 713.5H345.159C344.761 713.5 344.38 713.342 344.099 713.061C343.817 712.779 343.659 712.398 343.659 712V704.5C343.659 704.102 343.817 703.721 344.099 703.439C344.38 703.158 344.761 703 345.159 703H352.659C353.057 703 353.439 703.158 353.72 703.439C354.001 703.721 354.159 704.102 354.159 704.5V712C354.159 712.398 354.001 712.779 353.72 713.061C353.439 713.342 353.057 713.5 352.659 713.5ZM345.159 704.5V712H352.659V704.5H345.159Z" fill="black"/>
<path d="M360.159 709V712H357.159V709H360.159ZM360.159 707.5H357.159C356.761 707.5 356.38 707.658 356.099 707.939C355.817 708.221 355.659 708.602 355.659 709V712C355.659 712.398 355.817 712.779 356.099 713.061C356.38 713.342 356.761 713.5 357.159 713.5H360.159C360.557 713.5 360.939 713.342 361.22 713.061C361.501 712.779 361.659 712.398 361.659 712V709C361.659 708.602 361.501 708.221 361.22 707.939C360.939 707.658 360.557 707.5 360.159 707.5Z" fill="black"/>
<path d="M360.159 716.5V719.5H357.159V716.5H360.159ZM360.159 715H357.159C356.761 715 356.38 715.158 356.099 715.439C355.817 715.721 355.659 716.102 355.659 716.5V719.5C355.659 719.898 355.817 720.279 356.099 720.561C356.38 720.842 356.761 721 357.159 721H360.159C360.557 721 360.939 720.842 361.22 720.561C361.501 720.279 361.659 719.898 361.659 719.5V716.5C361.659 716.102 361.501 715.721 361.22 715.439C360.939 715.158 360.557 715 360.159 715Z" fill="black"/>
<path d="M352.659 716.5V719.5H349.659V716.5H352.659ZM352.659 715H349.659C349.261 715 348.88 715.158 348.599 715.439C348.317 715.721 348.159 716.102 348.159 716.5V719.5C348.159 719.898 348.317 720.279 348.599 720.561C348.88 720.842 349.261 721 349.659 721H352.659C353.057 721 353.439 720.842 353.72 720.561C354.001 720.279 354.159 719.898 354.159 719.5V716.5C354.159 716.102 354.001 715.721 353.72 715.439C353.439 715.158 353.057 715 352.659 715Z" fill="black"/>
<text fill="black" xml:space="preserve" style="white-space: pre" font-family="IBM Plex Sans" font-size="14" font-weight="600" letter-spacing="0.16px"><tspan x="384.659" y="716.25">Maximo Manage</tspan></text>
<rect width="288" height="48" transform="translate(328.659 624)" fill="white" fill-opacity="0.01" style="mix-blend-mode:multiply"/>
<rect x="329.159" y="624.5" width="47" height="47" rx="7.5" fill="#DEFBE6"/>
<rect x="329.159" y="624.5" width="47" height="47" rx="7.5" stroke="#198038"/>
<path d="M336.659 624H368.659C373.077 624 376.659 627.582 376.659 632V664C376.659 668.418 373.077 672 368.659 672H336.659C332.241 672 328.659 668.418 328.659 664V632C328.659 627.582 332.241 624 336.659 624Z" fill="white"/>
<path d="M336.659 624H368.659C373.077 624 376.659 627.582 376.659 632V664C376.659 668.418 373.077 672 368.659 672H336.659C332.241 672 328.659 668.418 328.659 664V632C328.659 627.582 332.241 624 336.659 624Z" fill="#DEFBE6"/>
<mask id="path-136-inside-17_253_5934" fill="white">
<path d="M336.659 624H368.659C373.077 624 376.659 627.582 376.659 632V664C376.659 668.418 373.077 672 368.659 672H336.659C332.241 672 328.659 668.418 328.659 664V632C328.659 627.582 332.241 624 336.659 624Z"/>
</mask>
<path d="M336.659 624H368.659C373.077 624 376.659 627.582 376.659 632V664C376.659 668.418 373.077 672 368.659 672H336.659C332.241 672 328.659 668.418 328.659 664V632C328.659 627.582 332.241 624 336.659 624Z" stroke="#198038" stroke-width="2" mask="url(#path-136-inside-17_253_5934)"/>
<rect width="24" height="24" transform="translate(340.659 636)" fill="white" fill-opacity="0.01"/>
<path d="M352.659 649.5H345.159C344.761 649.5 344.38 649.342 344.099 649.061C343.817 648.779 343.659 648.398 343.659 648V640.5C343.659 640.102 343.817 639.721 344.099 639.439C344.38 639.158 344.761 639 345.159 639H352.659C353.057 639 353.439 639.158 353.72 639.439C354.001 639.721 354.159 640.102 354.159 640.5V648C354.159 648.398 354.001 648.779 353.72 649.061C353.439 649.342 353.057 649.5 352.659 649.5ZM345.159 640.5V648H352.659V640.5H345.159Z" fill="black"/>
<path d="M360.159 645V648H357.159V645H360.159ZM360.159 643.5H357.159C356.761 643.5 356.38 643.658 356.099 643.939C355.817 644.221 355.659 644.602 355.659 645V648C355.659 648.398 355.817 648.779 356.099 649.061C356.38 649.342 356.761 649.5 357.159 649.5H360.159C360.557 649.5 360.939 649.342 361.22 649.061C361.501 648.779 361.659 648.398 361.659 648V645C361.659 644.602 361.501 644.221 361.22 643.939C360.939 643.658 360.557 643.5 360.159 643.5Z" fill="black"/>
<path d="M360.159 652.5V655.5H357.159V652.5H360.159ZM360.159 651H357.159C356.761 651 356.38 651.158 356.099 651.439C355.817 651.721 355.659 652.102 355.659 652.5V655.5C355.659 655.898 355.817 656.279 356.099 656.561C356.38 656.842 356.761 657 357.159 657H360.159C360.557 657 360.939 656.842 361.22 656.561C361.501 656.279 361.659 655.898 361.659 655.5V652.5C361.659 652.102 361.501 651.721 361.22 651.439C360.939 651.158 360.557 651 360.159 651Z" fill="black"/>
<path d="M352.659 652.5V655.5H349.659V652.5H352.659ZM352.659 651H349.659C349.261 651 348.88 651.158 348.599 651.439C348.317 651.721 348.159 652.102 348.159 652.5V655.5C348.159 655.898 348.317 656.279 348.599 656.561C348.88 656.842 349.261 657 349.659 657H352.659C353.057 657 353.439 656.842 353.72 656.561C354.001 656.279 354.159 655.898 354.159 655.5V652.5C354.159 652.102 354.001 651.721 353.72 651.439C353.439 651.158 353.057 651 352.659 651Z" fill="black"/>
<text fill="black" xml:space="preserve" style="white-space: pre" font-family="IBM Plex Sans" font-size="14" font-weight="600" letter-spacing="0.16px"><tspan x="384.659" y="652.25">Maximo Application Suite Core</tspan></text>
<path d="M664.66 576C664.66 571.582 668.242 568 672.66 568H904.66C909.078 568 912.66 571.582 912.66 576V744C912.66 748.418 909.078 752 904.66 752H672.66C668.242 752 664.66 748.418 664.66 744V576Z" fill="white"/>
<path d="M664.66 576C664.66 571.582 668.242 568 672.66 568H904.66C909.078 568 912.66 571.582 912.66 576V744C912.66 748.418 909.078 752 904.66 752H672.66C668.242 752 664.66 748.418 664.66 744V576Z" fill="white"/>
<g clip-path="url(#clip8_253_5934)">
<text fill="black" xml:space="preserve" style="white-space: pre" font-family="IBM Plex Sans" font-size="14" font-weight="600" letter-spacing="0.16px"><tspan x="680.66" y="597.25">Db2U Cluster</tspan></text>
</g>
<mask id="path-142-inside-18_253_5934" fill="white">
<path d="M904.66 568H672.66C668.242 568 664.66 571.582 664.66 576V744C664.66 748.418 668.242 752 672.66 752H904.66C909.078 752 912.66 748.418 912.66 744V576C912.66 571.582 909.078 568 904.66 568Z"/>
</mask>
<path d="M904.66 568H672.66C668.242 568 664.66 571.582 664.66 576V744C664.66 748.418 668.242 752 672.66 752H904.66C909.078 752 912.66 748.418 912.66 744V576C912.66 571.582 909.078 568 904.66 568Z" stroke="black" stroke-width="2" stroke-dasharray="4 4" mask="url(#path-142-inside-18_253_5934)"/>
<rect width="192" height="48" transform="translate(680.66 648)" fill="white" fill-opacity="0.01" style="mix-blend-mode:multiply"/>
<rect x="681.16" y="648.5" width="47" height="47" rx="7.5" fill="#DEFBE6"/>
<rect x="681.16" y="648.5" width="47" height="47" rx="7.5" stroke="#198038"/>
<path d="M688.66 648H720.66C725.078 648 728.66 651.582 728.66 656V688C728.66 692.418 725.078 696 720.66 696H688.66C684.242 696 680.66 692.418 680.66 688V656C680.66 651.582 684.242 648 688.66 648Z" fill="white"/>
<path d="M688.66 648H720.66C725.078 648 728.66 651.582 728.66 656V688C728.66 692.418 725.078 696 720.66 696H688.66C684.242 696 680.66 692.418 680.66 688V656C680.66 651.582 684.242 648 688.66 648Z" fill="#DEFBE6"/>
<mask id="path-146-inside-19_253_5934" fill="white">
<path d="M688.66 648H720.66C725.078 648 728.66 651.582 728.66 656V688C728.66 692.418 725.078 696 720.66 696H688.66C684.242 696 680.66 692.418 680.66 688V656C680.66 651.582 684.242 648 688.66 648Z"/>
</mask>
<path d="M688.66 648H720.66C725.078 648 728.66 651.582 728.66 656V688C728.66 692.418 725.078 696 720.66 696H688.66C684.242 696 680.66 692.418 680.66 688V656C680.66 651.582 684.242 648 688.66 648Z" stroke="#198038" stroke-width="2" mask="url(#path-146-inside-19_253_5934)"/>
<rect width="24" height="24" transform="translate(692.66 660)" fill="white" fill-opacity="0.01"/>
<path d="M704.66 662.25C700.687 662.25 696.41 663.189 696.41 665.25V678.75C696.41 680.811 700.687 681.75 704.66 681.75C708.634 681.75 712.91 680.811 712.91 678.75V665.25C712.91 663.189 708.634 662.25 704.66 662.25ZM704.66 663.75C709.008 663.75 711.256 664.826 711.408 665.25C711.256 665.674 709.008 666.75 704.66 666.75C700.279 666.75 698.031 665.658 697.91 665.263V665.26C698.031 664.842 700.279 663.75 704.66 663.75ZM697.91 667.071C699.506 667.871 702.142 668.25 704.66 668.25C707.178 668.25 709.814 667.871 711.41 667.071V669.74C711.29 670.158 709.041 671.25 704.66 671.25C700.273 671.25 698.023 670.155 697.91 669.75V667.071ZM697.91 671.571C699.506 672.371 702.142 672.75 704.66 672.75C707.178 672.75 709.814 672.371 711.41 671.571V674.24C711.29 674.658 709.041 675.75 704.66 675.75C700.273 675.75 698.023 674.655 697.91 674.25V671.571ZM704.66 680.25C700.273 680.25 698.023 679.155 697.91 678.75V676.071C699.506 676.871 702.142 677.25 704.66 677.25C707.178 677.25 709.814 676.871 711.41 676.071V678.74C711.29 679.158 709.041 680.25 704.66 680.25Z" fill="black"/>
<text fill="black" xml:space="preserve" style="white-space: pre" font-family="IBM Plex Sans" font-size="14" font-weight="600" letter-spacing="0.16px"><tspan x="736.66" y="668.25">Database</tspan></text>
<text fill="black" xml:space="preserve" style="white-space: pre" font-family="IBM Plex Sans" font-size="14" letter-spacing="0.16px"><tspan x="736.66" y="686.25">mas-dev2-system</tspan></text>
<rect width="64" height="8" transform="translate(616.66 668)" fill="white" fill-opacity="0.01" style="mix-blend-mode:multiply"/>
<g clip-path="url(#clip9_253_5934)">
<rect width="64" height="0" transform="translate(616.66 672)" fill="white" fill-opacity="0.01" style="mix-blend-mode:multiply"/>
<path d="M616.66 672H680.66" stroke="black"/>
</g>
<rect width="8" height="48" transform="translate(348.659 424)" fill="white" fill-opacity="0.01" style="mix-blend-mode:multiply"/>
<rect width="48" height="0" transform="matrix(0 -1 1 0 352.659 472)" fill="white" fill-opacity="0.01" style="mix-blend-mode:multiply"/>
<path d="M352.659 472V424" stroke="black"/>
<rect width="8" height="48" transform="translate(348.659 520)" fill="white" fill-opacity="0.01" style="mix-blend-mode:multiply"/>
<rect width="48" height="0" transform="matrix(0 -1 1 0 352.659 568)" fill="white" fill-opacity="0.01" style="mix-blend-mode:multiply"/>
<path d="M352.659 568V520" stroke="black"/>
<rect width="72" height="72" transform="translate(593 424)" fill="white" fill-opacity="0.01" style="mix-blend-mode:multiply"/>
<rect width="72" height="72" transform="matrix(1 0 0 -1 593 496)" fill="white" fill-opacity="0.01" style="mix-blend-mode:multiply"/>
<path d="M665 496H601C596.582 496 593 492.418 593 488V424" stroke="black"/>
<rect width="240" height="48" transform="translate(328.666 472)" fill="white" fill-opacity="0.01" style="mix-blend-mode:multiply"/>
<rect x="329.166" y="472.5" width="47" height="47" rx="7.5" fill="#F4F4F4"/>
<rect x="329.166" y="472.5" width="47" height="47" rx="7.5" stroke="black"/>
<path d="M336.666 472H368.666C373.084 472 376.666 475.582 376.666 480V512C376.666 516.418 373.084 520 368.666 520H336.666C332.248 520 328.666 516.418 328.666 512V480C328.666 475.582 332.248 472 336.666 472Z" fill="white"/>
<mask id="path-156-inside-20_253_5934" fill="white">
<path d="M336.666 472H368.666C373.084 472 376.666 475.582 376.666 480V512C376.666 516.418 373.084 520 368.666 520H336.666C332.248 520 328.666 516.418 328.666 512V480C328.666 475.582 332.248 472 336.666 472Z"/>
</mask>
<path d="M336.666 472H368.666C373.084 472 376.666 475.582 376.666 480V512C376.666 516.418 373.084 520 368.666 520H336.666C332.248 520 328.666 516.418 328.666 512V480C328.666 475.582 332.248 472 336.666 472Z" stroke="black" stroke-width="2" mask="url(#path-156-inside-20_253_5934)"/>
<rect width="24" height="24" transform="translate(340.666 484)" fill="white" fill-opacity="0.01"/>
<path d="M357.166 488.5H348.166V490H357.166V488.5Z" fill="black"/>
<path d="M357.166 491.5H348.166V493H357.166V491.5Z" fill="black"/>
<path d="M352.666 502H348.166V503.5H352.666V502Z" fill="black"/>
<path d="M352.666 494.5H348.166V496H352.666V494.5Z" fill="black"/>
<path d="M358.666 506.5H346.666C346.268 506.5 345.887 506.341 345.606 506.06C345.325 505.779 345.166 505.398 345.166 505V487C345.166 486.602 345.325 486.221 345.606 485.94C345.887 485.659 346.268 485.5 346.666 485.5H358.666C359.064 485.5 359.445 485.659 359.726 485.94C360.007 486.221 360.166 486.602 360.166 487V505C360.166 505.398 360.007 505.779 359.726 506.06C359.445 506.341 359.064 506.5 358.666 506.5ZM346.666 487V505H358.666V487H346.666Z" fill="black"/>
<text fill="black" xml:space="preserve" style="white-space: pre" font-family="IBM Plex Sans" font-size="14" font-weight="600" letter-spacing="0.16px"><tspan x="384.666" y="500.25">IBM Suite License Service</tspan></text>
<rect width="248" height="48" transform="translate(664.666 472)" fill="white" fill-opacity="0.01" style="mix-blend-mode:multiply"/>
<rect x="665.166" y="472.5" width="47" height="47" rx="7.5" fill="#F4F4F4"/>
<rect x="665.166" y="472.5" width="47" height="47" rx="7.5" stroke="black"/>
<path d="M672.666 472H704.666C709.084 472 712.666 475.582 712.666 480V512C712.666 516.418 709.084 520 704.666 520H672.666C668.248 520 664.666 516.418 664.666 512V480C664.666 475.582 668.248 472 672.666 472Z" fill="white"/>
<mask id="path-161-inside-21_253_5934" fill="white">
<path d="M672.666 472H704.666C709.084 472 712.666 475.582 712.666 480V512C712.666 516.418 709.084 520 704.666 520H672.666C668.248 520 664.666 516.418 664.666 512V480C664.666 475.582 668.248 472 672.666 472Z"/>
</mask>
<path d="M672.666 472H704.666C709.084 472 712.666 475.582 712.666 480V512C712.666 516.418 709.084 520 704.666 520H672.666C668.248 520 664.666 516.418 664.666 512V480C664.666 475.582 668.248 472 672.666 472Z" stroke="black" stroke-width="2" mask="url(#path-161-inside-21_253_5934)"/>
<rect width="24" height="24" transform="translate(676.666 484)" fill="white" fill-opacity="0.01"/>
<path d="M679.666 485.5H678.166V505C678.166 505.398 678.324 505.779 678.605 506.061C678.887 506.342 679.268 506.5 679.666 506.5H699.166V505H679.666V485.5Z" fill="black"/>
<path d="M699.166 490.75H693.916V492.25H696.609L690.916 497.943L687.699 494.717C687.629 494.647 687.546 494.591 687.454 494.553C687.363 494.515 687.265 494.496 687.166 494.496C687.067 494.496 686.969 494.515 686.878 494.553C686.786 494.591 686.703 494.647 686.634 494.717L681.166 500.193L682.224 501.25L687.166 496.307L690.384 499.532C690.453 499.603 690.536 499.659 690.628 499.697C690.719 499.735 690.817 499.754 690.916 499.754C691.015 499.754 691.113 499.735 691.204 499.697C691.296 499.659 691.379 499.603 691.449 499.532L697.666 493.307V496H699.166V490.75Z" fill="black"/>
<text fill="black" xml:space="preserve" style="white-space: pre" font-family="IBM Plex Sans" font-size="14" font-weight="600" letter-spacing="0.16px"><tspan x="720.666" y="500.25"> IBM Data Reporter Operator</tspan></text>
<rect width="16" height="16" transform="translate(272.661 240)" fill="white" fill-opacity="0.01" style="mix-blend-mode:multiply"/>
<rect width="16" height="16" transform="matrix(-1 0 0 1 288.661 240)" fill="white" fill-opacity="0.01" style="mix-blend-mode:multiply"/>
<path d="M272.661 240H280.661C285.079 240 288.661 243.582 288.661 248V256" stroke="black"/>
<rect width="16" height="16" transform="translate(272.661 400)" fill="white" fill-opacity="0.01" style="mix-blend-mode:multiply"/>
<rect width="16" height="16" transform="matrix(-1 0 0 -1 288.661 416)" fill="white" fill-opacity="0.01" style="mix-blend-mode:multiply"/>
<path d="M272.661 416H280.661C285.079 416 288.661 412.418 288.661 408V400" stroke="black"/>
<rect width="16" height="72" transform="translate(288.661 256)" fill="white" fill-opacity="0.01" style="mix-blend-mode:multiply"/>
<rect width="16" height="72" transform="matrix(1 0 0 -1 288.661 328)" fill="white" fill-opacity="0.01" style="mix-blend-mode:multiply"/>
<path d="M304.661 328H296.661C292.243 328 288.661 324.418 288.661 320V256" stroke="black"/>
<rect width="16" height="72" transform="translate(288.661 328)" fill="white" fill-opacity="0.01" style="mix-blend-mode:multiply"/>
<rect width="16" height="72" transform="translate(288.661 328)" fill="white" fill-opacity="0.01" style="mix-blend-mode:multiply"/>
<path d="M304.661 328H296.661C292.243 328 288.661 331.582 288.661 336V400" stroke="black"/>
<rect width="208" height="24" transform="translate(104.661 648)" fill="white" fill-opacity="0.01" style="mix-blend-mode:multiply"/>
<rect width="208" height="24" transform="matrix(1 0 0 -1 104.661 672)" fill="white" fill-opacity="0.01" style="mix-blend-mode:multiply"/>
<path d="M312.661 672H112.661C108.243 672 104.661 668.418 104.661 664V648" stroke="black"/>
<mask id="path-170-inside-22_253_5934" fill="white">
<path d="M76.6611 832H52.6611C50.452 832 48.6611 833.791 48.6611 836V844C48.6611 846.209 50.452 848 52.6611 848H76.6611C78.8703 848 80.6611 846.209 80.6611 844V836C80.6611 833.791 78.8703 832 76.6611 832Z"/>
</mask>
<path d="M76.6611 832H52.6611C50.452 832 48.6611 833.791 48.6611 836V844C48.6611 846.209 50.452 848 52.6611 848H76.6611C78.8703 848 80.6611 846.209 80.6611 844V836C80.6611 833.791 78.8703 832 76.6611 832Z" fill="#FFF1F1" stroke="#FA4D56" stroke-width="2" mask="url(#path-170-inside-22_253_5934)"/>
<text fill="#525252" xml:space="preserve" style="white-space: pre" font-family="IBM Plex Sans" font-size="14" letter-spacing="0.0016em"><tspan x="88.6611" y="845.25">Red Hat OpenShift Cluster</tspan></text>
<mask id="path-173-inside-23_253_5934" fill="white">
<path d="M308.661 832H284.661C282.452 832 280.661 833.791 280.661 836V844C280.661 846.209 282.452 848 284.661 848H308.661C310.87 848 312.661 846.209 312.661 844V836C312.661 833.791 310.87 832 308.661 832Z"/>
</mask>
<path d="M308.661 832H284.661C282.452 832 280.661 833.791 280.661 836V844C280.661 846.209 282.452 848 284.661 848H308.661C310.87 848 312.661 846.209 312.661 844V836C312.661 833.791 310.87 832 308.661 832Z" fill="#EDF5FF" stroke="#0F62FE" stroke-width="2" mask="url(#path-173-inside-23_253_5934)"/>
<text fill="#525252" xml:space="preserve" style="white-space: pre" font-family="IBM Plex Sans" font-size="14" letter-spacing="0.0016em"><tspan x="320.661" y="845.25">Instance 1</tspan></text>
<mask id="path-176-inside-24_253_5934" fill="white">
<path d="M452.661 832H428.661C426.452 832 424.661 833.791 424.661 836V844C424.661 846.209 426.452 848 428.661 848H452.661C454.87 848 456.661 846.209 456.661 844V836C456.661 833.791 454.87 832 452.661 832Z"/>
</mask>
<path d="M452.661 832H428.661C426.452 832 424.661 833.791 424.661 836V844C424.661 846.209 426.452 848 428.661 848H452.661C454.87 848 456.661 846.209 456.661 844V836C456.661 833.791 454.87 832 452.661 832Z" fill="#DEFBE6" stroke="#198038" stroke-width="2" mask="url(#path-176-inside-24_253_5934)"/>
<text fill="#525252" xml:space="preserve" style="white-space: pre" font-family="IBM Plex Sans" font-size="14" letter-spacing="0.0016em"><tspan x="464.661" y="845.25">Instance 2</tspan></text>
<mask id="path-179-inside-25_253_5934" fill="white">
<path d="M596.661 832H572.661C570.452 832 568.661 833.791 568.661 836V844C568.661 846.209 570.452 848 572.661 848H596.661C598.87 848 600.661 846.209 600.661 844V836C600.661 833.791 598.87 832 596.661 832Z"/>
</mask>
<path d="M596.661 832H572.661C570.452 832 568.661 833.791 568.661 836V844C568.661 846.209 570.452 848 572.661 848H596.661C598.87 848 600.661 846.209 600.661 844V836C600.661 833.791 598.87 832 596.661 832Z" fill="#F4F4F4" stroke="black" stroke-width="2" mask="url(#path-179-inside-25_253_5934)"/>
<text fill="#525252" xml:space="preserve" style="white-space: pre" font-family="IBM Plex Sans" font-size="14" letter-spacing="0.0016em"><tspan x="608.66" y="845.25">Shared Dependencies</tspan></text>
<mask id="path-182-inside-26_253_5934" fill="white">
<path d="M76.6611 864H52.6611C50.452 864 48.6611 865.791 48.6611 868V876C48.6611 878.209 50.452 880 52.6611 880H76.6611C78.8703 880 80.6611 878.209 80.6611 876V868C80.6611 865.791 78.8703 864 76.6611 864Z"/>
</mask>
<path d="M76.6611 864H52.6611C50.452 864 48.6611 865.791 48.6611 868V876C48.6611 878.209 50.452 880 52.6611 880H76.6611C78.8703 880 80.6611 878.209 80.6611 876V868C80.6611 865.791 78.8703 864 76.6611 864Z" fill="white" stroke="#8D8D8D" stroke-width="2" stroke-dasharray="4 4" mask="url(#path-182-inside-26_253_5934)"/>
<text fill="#525252" xml:space="preserve" style="white-space: pre" font-family="IBM Plex Sans" font-size="14" letter-spacing="0.0016em"><tspan x="88.6611" y="877.25">Database cluster, which can also be provided by a cloud service or deployment on a separate cluster</tspan></text>
<defs>
<clipPath id="clip0_253_5934">
<rect width="880" height="48" fill="white" transform="translate(48.6611 48)"/>
</clipPath>
<clipPath id="clip1_253_5934">
<rect width="208" height="48" fill="white" transform="translate(64.6611 112)"/>
</clipPath>
<clipPath id="clip2_253_5934">
<rect width="128" height="8" fill="white" transform="translate(200.661 492)"/>
</clipPath>
<clipPath id="clip3_253_5934">
<rect width="304" height="48" fill="white" transform="translate(312.659 112)"/>
</clipPath>
<clipPath id="clip4_253_5934">
<rect width="248" height="48" fill="white" transform="translate(664.66 184)"/>
</clipPath>
<clipPath id="clip5_253_5934">
<rect width="248" height="48" fill="white" transform="translate(664.66 312)"/>
</clipPath>
<clipPath id="clip6_253_5934">
<rect width="64" height="8" fill="white" transform="translate(616.66 252)"/>
</clipPath>
<clipPath id="clip7_253_5934">
<rect width="304" height="48" fill="white" transform="translate(312.659 568)"/>
</clipPath>
<clipPath id="clip8_253_5934">
<rect width="248" height="48" fill="white" transform="translate(664.66 568)"/>
</clipPath>
<clipPath id="clip9_253_5934">
<rect width="64" height="8" fill="white" transform="translate(616.66 668)"/>
</clipPath>
</defs>
</svg>
